HIERARCHY
ROOT mixamorig:Hips
{
	OFFSET 0.000000 201.639420 0.000000
	CHANNELS 6 Xposition Yposition Zposition Xrotation Yrotation Zrotation
	JOINT mixamorig:Spine
	{
		OFFSET 0.006200 19.524994 -2.481800
		CHANNELS 3 Xrotation Yrotation Zrotation
		JOINT mixamorig:Spine1
		{
			OFFSET -0.000900 22.835007 -2.825400
			CHANNELS 3 Xrotation Yrotation Zrotation
			JOINT mixamorig:Spine2
			{
				OFFSET -0.020600 26.552490 -3.193300
				CHANNELS 3 Xrotation Yrotation Zrotation
				JOINT mixamorig:Neck
				{
					OFFSET -0.060000 30.701813 1.352200
					CHANNELS 3 Xrotation Yrotation Zrotation
					JOINT mixamorig:Head
					{
						OFFSET -0.087200 22.547607 3.670900
						CHANNELS 3 Xrotation Yrotation Zrotation
						JOINT mixamorig:HeadTop_End
						{
							OFFSET -0.830600 40.355194 7.893500
							CHANNELS 3 Xrotation Yrotation Zrotation
							End Site
							{
								OFFSET 0.000000 30.592346 0.000000
							}
						}
						JOINT mixamorig:RightEye
						{
							OFFSET -6.302100 18.118591 16.197100
							CHANNELS 3 Xrotation Yrotation Zrotation
							End Site
							{
								OFFSET 0.000000 30.592346 0.000000
							}
						}
						JOINT mixamorig:LeftEye
						{
							OFFSET 6.741500 18.382690 16.401899
							CHANNELS 3 Xrotation Yrotation Zrotation
							End Site
							{
								OFFSET 0.000000 30.592346 0.000000
							}
						}
					}
				}
				JOINT mixamorig:LeftShoulder
				{
					OFFSET 11.924900 18.230499 1.425400
					CHANNELS 3 Xrotation Yrotation Zrotation
					JOINT mixamorig:LeftArm
					{
						OFFSET 25.435989 -0.697632 -5.229300
						CHANNELS 3 Xrotation Yrotation Zrotation
						JOINT mixamorig:LeftForeArm
						{
							OFFSET 54.684776 0.000000 0.000000
							CHANNELS 3 Xrotation Yrotation Zrotation
							JOINT mixamorig:LeftHand
							{
								OFFSET 55.098175 0.000000 0.000000
								CHANNELS 3 Xrotation Yrotation Zrotation
								JOINT mixamorig:LeftHandMiddle1
								{
									OFFSET 23.369751 0.000000 0.000000
									CHANNELS 3 Xrotation Yrotation Zrotation
									JOINT mixamorig:LeftHandMiddle2
									{
										OFFSET 6.378677 0.000000 0.000000
										CHANNELS 3 Xrotation Yrotation Zrotation
										JOINT mixamorig:LeftHandMiddle3
										{
											OFFSET 6.148331 0.000000 0.000000
											CHANNELS 3 Xrotation Yrotation Zrotation
											JOINT mixamorig:LeftHandMiddle4
											{
												OFFSET 6.582504 0.000000 0.000000
												CHANNELS 3 Xrotation Yrotation Zrotation
												End Site
												{
													OFFSET -1.168900 6.395691 1.028606
												}
											}
										}
									}
								}
								JOINT mixamorig:LeftHandThumb1
								{
									OFFSET 7.235672 -3.848206 5.434273
									CHANNELS 3 Xrotation Yrotation Zrotation
									JOINT mixamorig:LeftHandThumb2
									{
										OFFSET 6.568451 -3.792297 3.792300
										CHANNELS 3 Xrotation Yrotation Zrotation
										JOINT mixamorig:LeftHandThumb3
										{
											OFFSET 6.063080 -3.500519 3.500518
											CHANNELS 3 Xrotation Yrotation Zrotation
											JOINT mixamorig:LeftHandThumb4
											{
												OFFSET 4.793182 -2.767334 2.767349
												CHANNELS 3 Xrotation Yrotation Zrotation
												End Site
												{
													OFFSET 0.101639 6.054260 1.275483
												}
											}
										}
									}
								}
								JOINT mixamorig:LeftHandIndex1
								{
									OFFSET 23.101074 -0.309540 4.992809
									CHANNELS 3 Xrotation Yrotation Zrotation
									JOINT mixamorig:LeftHandIndex2
									{
										OFFSET 6.226883 0.000000 0.000000
										CHANNELS 3 Xrotation Yrotation Zrotation
										JOINT mixamorig:LeftHandIndex3
										{
											OFFSET 6.094330 0.000000 0.000000
											CHANNELS 3 Xrotation Yrotation Zrotation
											JOINT mixamorig:LeftHandIndex4
											{
												OFFSET 5.482605 0.000000 0.000000
												CHANNELS 3 Xrotation Yrotation Zrotation
												End Site
												{
													OFFSET -1.427902 5.233032 0.797164
												}
											}
										}
									}
								}
								JOINT mixamorig:LeftHandRing1
								{
									OFFSET 22.299240 0.021149 -3.964172
									CHANNELS 3 Xrotation Yrotation Zrotation
									JOINT mixamorig:LeftHandRing2
									{
										OFFSET 6.321869 0.000000 0.000000
										CHANNELS 3 Xrotation Yrotation Zrotation
										JOINT mixamorig:LeftHandRing3
										{
											OFFSET 5.899796 0.000000 0.000000
											CHANNELS 3 Xrotation Yrotation Zrotation
											JOINT mixamorig:LeftHandRing4
											{
												OFFSET 6.517899 0.000000 0.000000
												CHANNELS 3 Xrotation Yrotation Zrotation
												End Site
												{
													OFFSET -1.637299 6.232208 0.980890
												}
											}
										}
									}
								}
								JOINT mixamorig:LeftHandPinky1
								{
									OFFSET 20.463791 -0.302338 -8.562233
									CHANNELS 3 Xrotation Yrotation Zrotation
									JOINT mixamorig:LeftHandPinky2
									{
										OFFSET 6.908646 0.000000 0.000000
										CHANNELS 3 Xrotation Yrotation Zrotation
										JOINT mixamorig:LeftHandPinky3
										{
											OFFSET 4.622849 0.000000 0.000000
											CHANNELS 3 Xrotation Yrotation Zrotation
											JOINT mixamorig:LeftHandPinky4
											{
												OFFSET 5.216080 0.000000 0.000000
												CHANNELS 3 Xrotation Yrotation Zrotation
												End Site
												{
													OFFSET -0.606308 5.116241 0.814926
												}
											}
										}
									}
								}
							}
						}
					}
				}
				JOINT mixamorig:RightShoulder
				{
					OFFSET -12.001300 18.284088 1.348900
					CHANNELS 3 Xrotation Yrotation Zrotation
					JOINT mixamorig:RightArm
					{
						OFFSET -25.308500 -0.751312 -5.164599
						CHANNELS 3 Xrotation Yrotation Zrotation
						JOINT mixamorig:RightForeArm
						{
							OFFSET -54.684429 0.000000 0.000000
							CHANNELS 3 Xrotation Yrotation Zrotation
							JOINT mixamorig:RightHand
							{
								OFFSET -55.150291 0.000000 0.000000
								CHANNELS 3 Xrotation Yrotation Zrotation
								JOINT mixamorig:RightHandMiddle1
								{
									OFFSET -23.317566 0.000000 0.000000
									CHANNELS 3 Xrotation Yrotation Zrotation
									JOINT mixamorig:RightHandMiddle2
									{
										OFFSET -6.378403 0.000000 0.000000
										CHANNELS 3 Xrotation Yrotation Zrotation
										JOINT mixamorig:RightHandMiddle3
										{
											OFFSET -6.148193 0.000000 0.000000
											CHANNELS 3 Xrotation Yrotation Zrotation
											JOINT mixamorig:RightHandMiddle4
											{
												OFFSET -6.583389 0.000000 0.000000
												CHANNELS 3 Xrotation Yrotation Zrotation
												End Site
												{
													OFFSET 1.171692 6.395905 1.029786
												}
											}
										}
									}
								}
								JOINT mixamorig:RightHandThumb1
								{
									OFFSET -7.190521 -3.860474 5.435846
									CHANNELS 3 Xrotation Yrotation Zrotation
									JOINT mixamorig:RightHandThumb2
									{
										OFFSET -6.567429 -3.791718 3.791708
										CHANNELS 3 Xrotation Yrotation Zrotation
										JOINT mixamorig:RightHandThumb3
										{
											OFFSET -6.062469 -3.500153 3.500166
											CHANNELS 3 Xrotation Yrotation Zrotation
											JOINT mixamorig:RightHandThumb4
											{
												OFFSET -4.792618 -2.767029 2.767022
												CHANNELS 3 Xrotation Yrotation Zrotation
												End Site
												{
													OFFSET -0.100327 6.053253 1.276754
												}
											}
										}
									}
								}
								JOINT mixamorig:RightHandIndex1
								{
									OFFSET -23.048981 -0.310791 4.992554
									CHANNELS 3 Xrotation Yrotation Zrotation
									JOINT mixamorig:RightHandIndex2
									{
										OFFSET -6.227539 0.000000 0.000000
										CHANNELS 3 Xrotation Yrotation Zrotation
										JOINT mixamorig:RightHandIndex3
										{
											OFFSET -6.095047 0.000000 0.000000
											CHANNELS 3 Xrotation Yrotation Zrotation
											JOINT mixamorig:RightHandIndex4
											{
												OFFSET -5.484772 0.000000 0.000000
												CHANNELS 3 Xrotation Yrotation Zrotation
												End Site
												{
													OFFSET 1.420593 5.237305 0.797056
												}
											}
										}
									}
								}
								JOINT mixamorig:RightHandRing1
								{
									OFFSET -22.246323 0.020569 -3.963762
									CHANNELS 3 Xrotation Yrotation Zrotation
									JOINT mixamorig:RightHandRing2
									{
										OFFSET -6.322128 0.000000 0.000000
										CHANNELS 3 Xrotation Yrotation Zrotation
										JOINT mixamorig:RightHandRing3
										{
											OFFSET -5.900024 0.000000 0.000000
											CHANNELS 3 Xrotation Yrotation Zrotation
											JOINT mixamorig:RightHandRing4
											{
												OFFSET -6.518356 0.000000 0.000000
												CHANNELS 3 Xrotation Yrotation Zrotation
												End Site
												{
													OFFSET 1.636398 6.232697 0.982186
												}
											}
										}
									}
								}
								JOINT mixamorig:RightHandPinky1
								{
									OFFSET -20.411011 -0.303314 -8.561701
									CHANNELS 3 Xrotation Yrotation Zrotation
									JOINT mixamorig:RightHandPinky2
									{
										OFFSET -6.907349 0.000000 0.000000
										CHANNELS 3 Xrotation Yrotation Zrotation
										JOINT mixamorig:RightHandPinky3
										{
											OFFSET -4.623840 0.000000 0.000000
											CHANNELS 3 Xrotation Yrotation Zrotation
											JOINT mixamorig:RightHandPinky4
											{
												OFFSET -5.218353 0.000000 0.000000
												CHANNELS 3 Xrotation Yrotation Zrotation
												End Site
												{
													OFFSET 0.602097 5.118835 0.816273
												}
											}
										}
									}
								}
							}
						}
					}
				}
			}
		}
	}
	JOINT mixamorig:LeftUpLeg
	{
		OFFSET 18.168400 -13.561905 -0.039000
		CHANNELS 3 Xrotation Yrotation Zrotation
		JOINT mixamorig:LeftLeg
		{
			OFFSET 0.577358 -80.825211 -3.695000
			CHANNELS 3 Xrotation Yrotation Zrotation
			JOINT mixamorig:LeftFoot
			{
				OFFSET -0.577356 -83.370262 -6.520700
				CHANNELS 3 Xrotation Yrotation Zrotation
				JOINT mixamorig:LeftToeBase
				{
					OFFSET 0.750401 -20.798306 25.135401
					CHANNELS 3 Xrotation Yrotation Zrotation
					JOINT mixamorig:LeftToe_End
					{
						OFFSET -0.000500 0.001200 19.917799
						CHANNELS 3 Xrotation Yrotation Zrotation
						End Site
						{
							OFFSET 0.000000 19.917805 0.000000
						}
					}
				}
			}
		}
	}
	JOINT mixamorig:RightUpLeg
	{
		OFFSET -18.162500 -13.585098 -0.041000
		CHANNELS 3 Xrotation Yrotation Zrotation
		JOINT mixamorig:RightLeg
		{
			OFFSET -0.595024 -80.945297 -3.631900
			CHANNELS 3 Xrotation Yrotation Zrotation
			JOINT mixamorig:RightFoot
			{
				OFFSET 0.595024 -83.218193 -6.561200
				CHANNELS 3 Xrotation Yrotation Zrotation
				JOINT mixamorig:RightToeBase
				{
					OFFSET -0.753601 -20.807106 25.115000
					CHANNELS 3 Xrotation Yrotation Zrotation
					JOINT mixamorig:RightToe_End
					{
						OFFSET 0.000299 0.001700 19.918200
						CHANNELS 3 Xrotation Yrotation Zrotation
						End Site
						{
							OFFSET 0.000000 19.918203 0.000000
						}
					}
				}
			}
		}
	}
}
MOTION
Frames: 5
Frame Time: 0.033333
-8.463108 194.493744 5.784767 -9.589040 -8.555887 -1.406622 3.599207 -2.854197 2.349001 7.379346 -5.620133 1.029436 7.407098 -5.573562 1.110226 -5.601269 4.073913 -0.516810 -3.631437 19.193428 -1.098970 0.000000 -0.000000 -0.000000 0.000000 -0.000000 -0.000000 0.000000 -0.000000 -0.000000 1.271186 -0.778607 -8.840538 0.499213 -64.840311 -41.089281 0.000009 -35.881419 -0.000007 -47.476040 18.997140 1.524993 0.063871 0.937577 -7.793727 0.064887 0.945140 -7.857193 0.016179 0.472731 -3.920320 -0.000001 -0.000001 -0.000001 -1.562779 -5.583111 4.768987 3.147917 -1.248576 -0.010294 -1.048450 -3.107569 2.042836 -0.000004 -0.000001 0.000002 0.064128 0.939481 -7.809707 0.064647 0.943246 -7.841202 0.016180 0.472722 -3.920322 -0.000002 -0.000003 0.000001 0.064122 0.939486 -7.809713 0.064644 0.943233 -7.841203 0.016182 0.472729 -3.920319 -0.000004 0.000002 0.000001 0.598713 4.958488 -7.326812 0.055066 -3.111636 -8.347153 0.016179 0.472732 -3.920321 -0.000002 -0.000001 -0.000001 5.551657 15.735733 -0.795674 9.053541 22.562425 34.686392 -0.000046 72.127139 0.000029 -31.281081 -34.588419 -1.824763 0.678882 -3.001532 25.484015 0.678888 -3.001545 25.483999 0.171689 -1.538641 12.733108 0.000000 -0.000001 -0.000000 -1.834557 -1.432656 -6.253299 4.912448 -11.576391 -0.431920 -1.131489 -1.330030 -2.253064 0.000001 0.000001 0.000003 0.678885 -3.001532 25.484008 0.678888 -3.001524 25.484008 0.171686 -1.538640 12.733111 0.000002 0.000002 -0.000002 0.678883 -3.001538 25.484008 0.678894 -3.001538 25.483994 0.171680 -1.538636 12.733118 -0.000001 0.000001 0.000005 0.678887 -3.001531 25.484015 0.678889 -3.001539 25.484003 0.171685 -1.538641 12.733108 -0.000002 0.000003 0.000001 -15.047166 4.455936 13.284815 11.287684 9.220031 -0.182910 9.888464 -2.365669 -2.078358 0.000031 0.000003 0.000001 -0.000000 0.000001 0.000000 -9.199355 -3.265717 3.575675 31.941680 3.423927 -8.712688 -12.885732 -0.573589 3.251088 -0.011949 -0.000000 -0.000001 -0.000000 0.000000 0.000000 
-7.508080 194.245041 7.070770 -9.960436 -10.947536 -2.075093 3.592613 -2.960560 2.650489 7.379648 -5.872116 1.422825 7.414438 -5.810965 1.523622 -5.297772 4.571922 -0.708301 -3.145543 21.428129 -1.674475 0.000000 -0.000000 -0.000000 0.000000 -0.000000 -0.000000 0.000000 -0.000000 -0.000000 1.234601 -0.505848 -9.355511 -5.463156 -62.761515 -45.464447 -0.000014 -35.263003 -0.000017 -45.405619 18.291633 -1.041670 0.064056 0.938938 -7.805381 0.065097 0.946674 -7.869803 0.016239 0.473485 -3.926640 0.000001 -0.000001 0.000001 -1.563146 -5.607681 4.765303 3.153006 -1.251325 -0.007214 -1.049470 -3.117400 2.041748 0.000001 0.000003 -0.000003 0.064323 0.940865 -7.821358 0.064842 0.944756 -7.853812 0.016229 0.473495 -3.926621 0.000002 -0.000001 0.000000 0.064322 0.940871 -7.821350 0.064839 0.944756 -7.853814 0.016227 0.473478 -3.926644 -0.000000 0.000001 -0.000002 0.599724 4.959764 -7.338505 0.055280 -3.110113 -8.359772 0.016230 0.473484 -3.926632 -0.000002 -0.000000 0.000001 5.779609 16.252768 -1.545243 5.607305 27.641458 33.681025 0.000010 72.419840 0.000009 -28.313528 -39.402248 -1.595384 0.678877 -3.001534 25.484010 0.678898 -3.001538 25.483999 0.171693 -1.538636 12.733122 -0.000001 0.000000 0.000003 -1.837225 -2.008109 -6.342264 4.993168 -12.471878 -0.494061 -1.089683 -1.776573 -2.301240 -0.000001 -0.000000 0.000003 0.678878 -3.001533 25.484006 0.678894 -3.001516 25.484006 0.171694 -1.538645 12.733115 -0.000001 0.000001 -0.000001 0.678882 -3.001541 25.483994 0.678899 -3.001531 25.484018 0.171686 -1.538638 12.733124 -0.000000 -0.000002 0.000001 0.678877 -3.001527 25.484008 0.678889 -3.001532 25.484006 0.171694 -1.538642 12.733113 0.000002 0.000000 0.000000 -12.243904 4.946435 14.124403 3.975033 9.833790 0.484899 12.831816 -2.491699 -2.593234 0.000038 -0.000001 -0.000001 -0.000000 -0.000000 0.000000 -9.028597 -2.415794 3.426438 32.623425 5.032633 -8.171668 -13.338951 -0.550390 2.907542 -0.016785 0.000003 -0.000000 -0.000000 0.000000 0.000000 
-6.210073 193.825867 8.764057 -10.159358 -13.454967 -2.957081 3.559150 -3.044646 3.156492 7.325013 -6.103754 1.809518 7.369603 -6.023747 1.929426 -5.091638 5.067993 -0.858698 -2.717221 23.721587 -2.318748 0.000000 0.000000 -0.000000 0.000000 0.000000 -0.000000 0.000000 0.000000 -0.000000 1.184931 -0.137930 -9.962663 -10.074057 -60.729008 -48.602264 -0.000008 -34.816227 -0.000011 -44.620799 17.665133 -2.531388 0.064249 0.940340 -7.816905 0.065315 0.948148 -7.882328 0.016292 0.474237 -3.932901 0.000001 0.000001 -0.000000 -1.563352 -5.622006 4.763189 3.154805 -1.252299 -0.006130 -1.049841 -3.120865 2.041381 -0.000002 -0.000002 -0.000003 0.064521 0.942249 -7.832887 0.065053 0.946239 -7.866340 0.016281 0.474248 -3.932879 -0.000002 -0.000002 -0.000001 0.064519 0.942256 -7.832887 0.065057 0.946246 -7.866327 0.016287 0.474238 -3.932887 -0.000001 0.000001 -0.000002 0.600724 4.961040 -7.350099 0.055514 -3.108627 -8.372259 0.016287 0.474246 -3.932886 -0.000004 0.000002 0.000001 5.936067 16.663998 -1.908057 2.266181 32.894334 33.572145 0.000040 72.221252 -0.000037 -25.008823 -42.555364 -0.049151 0.678885 -3.001526 25.483992 0.678891 -3.001538 25.483982 0.171689 -1.538633 12.733124 -0.000002 -0.000000 -0.000005 -1.840473 -2.535199 -6.423808 5.067419 -13.302725 -0.550741 -1.051227 -2.190905 -2.345645 -0.000002 0.000000 -0.000000 0.678876 -3.001528 25.484006 0.678901 -3.001523 25.483979 0.171683 -1.538635 12.733111 -0.000003 0.000000 -0.000001 0.678887 -3.001540 25.484001 0.678889 -3.001532 25.483999 0.171692 -1.538636 12.733104 -0.000003 -0.000000 0.000001 0.678883 -3.001527 25.484015 0.678899 -3.001538 25.483989 0.171692 -1.538635 12.733105 -0.000001 -0.000000 -0.000000 -11.334128 4.018834 15.118533 1.795105 9.738528 1.191419 12.865470 -0.055537 -3.520314 0.000025 -0.000002 0.000003 -0.000001 -0.000000 0.000000 -9.130068 -1.540461 3.256678 33.518788 6.785119 -7.473054 -13.973891 -0.533913 2.559312 -0.023677 -0.000001 -0.000001 0.000000 0.000000 0.000000 
-4.700525 193.536484 10.766022 -10.110064 -15.943702 -3.616769 3.487303 -3.110758 3.552020 7.197655 -6.291981 2.111617 7.248433 -6.197899 2.248869 -4.971708 5.510770 -0.922905 -2.314470 25.876056 -2.995314 -0.000000 -0.000000 -0.000000 -0.000000 -0.000000 -0.000000 -0.000000 -0.000000 -0.000000 1.135913 0.208703 -10.377553 -12.357181 -59.915703 -49.721045 -0.000006 -34.318316 -0.000014 -47.137348 16.649310 -2.675678 0.064450 0.941703 -7.828321 0.065545 0.949634 -7.894695 0.016320 0.474990 -3.939101 0.000002 0.000001 -0.000000 -1.563433 -5.627109 4.762415 3.153603 -1.251628 -0.006853 -1.049606 -3.118573 2.041614 0.000002 0.000000 0.000004 0.064689 0.943609 -7.844327 0.065276 0.947726 -7.878717 0.016323 0.474981 -3.939095 0.000000 -0.000004 -0.000000 0.064695 0.943610 -7.844322 0.065270 0.947726 -7.878720 0.016324 0.474984 -3.939091 -0.000000 -0.000002 0.000001 0.601706 4.962293 -7.361572 0.055762 -3.107146 -8.384624 0.016324 0.474985 -3.939092 -0.000002 0.000002 0.000002 6.011719 17.091409 -1.544722 -0.703098 37.926189 34.141199 0.000044 71.766669 -0.000052 -22.496459 -43.693936 1.663301 0.678875 -3.001528 25.484013 0.678881 -3.001532 25.484020 0.171703 -1.538643 12.733086 0.000000 0.000001 -0.000000 -1.843946 -2.999687 -6.495716 5.133742 -14.050809 -0.601031 -1.016885 -2.563942 -2.385445 0.000004 -0.000003 0.000001 0.678875 -3.001523 25.484006 0.678888 -3.001526 25.484006 0.171693 -1.538629 12.733109 0.000005 0.000001 0.000002 0.678881 -3.001527 25.484011 0.678878 -3.001535 25.483998 0.171694 -1.538622 12.733114 -0.000001 -0.000001 0.000003 0.678881 -3.001524 25.484015 0.678887 -3.001537 25.484011 0.171703 -1.538632 12.733111 -0.000004 0.000002 0.000002 -11.321122 2.551935 15.722885 2.419114 9.639891 2.104497 12.041792 3.239433 -4.969382 0.000032 0.000002 0.000005 0.000000 0.000000 0.000000 -9.343159 -0.687037 2.713073 34.069410 8.099014 -6.737368 -14.555034 0.081806 2.464144 -0.031227 -0.000001 -0.000000 -0.000000 -0.000000 -0.000000 
-3.012720 193.391815 13.025799 -9.813647 -18.317220 -4.036030 3.378596 -3.142119 3.745982 7.008042 -6.378606 2.376111 7.059096 -6.277852 2.524911 -4.843713 5.901249 -0.982196 -1.903957 27.787976 -3.701827 -0.000000 -0.000000 -0.000000 -0.000000 -0.000000 -0.000000 -0.000000 -0.000000 -0.000000 1.095167 0.497611 -10.689663 -13.201847 -59.969232 -49.641992 0.000008 -33.818804 0.000004 -52.037541 15.514607 -1.892497 0.064635 0.943040 -7.839615 0.065721 0.951096 -7.906966 0.016394 0.475727 -3.945214 0.000001 -0.000000 0.000000 -1.563400 -5.623856 4.762895 3.149737 -1.249568 -0.009197 -1.048817 -3.111107 2.042448 0.000000 0.000004 0.000002 0.064879 0.944961 -7.855613 0.065478 0.949190 -7.890978 0.016389 0.475728 -3.945206 0.000001 -0.000001 -0.000003 0.064873 0.944956 -7.855611 0.065478 0.949193 -7.890976 0.016390 0.475720 -3.945211 0.000000 0.000003 -0.000002 0.602690 4.963537 -7.372921 0.055950 -3.105676 -8.396865 0.016386 0.475722 -3.945207 -0.000001 -0.000000 0.000002 6.101764 17.590869 -1.141050 -3.240965 42.202858 35.277254 0.000008 71.540433 -0.000020 -20.733085 -43.475933 3.260698 0.678876 -3.001530 25.484018 0.678891 -3.001535 25.484004 0.171683 -1.538647 12.733110 -0.000001 -0.000002 -0.000002 -1.847298 -3.387391 -6.555763 5.190705 -14.697925 -0.643989 -0.987387 -2.886620 -2.419684 0.000000 -0.000000 0.000000 0.678881 -3.001530 25.484008 0.678894 -3.001512 25.484008 0.171674 -1.538639 12.733112 -0.000000 0.000000 0.000000 0.678882 -3.001529 25.484010 0.678876 -3.001534 25.484015 0.171693 -1.538640 12.733103 0.000004 0.000001 0.000005 0.678876 -3.001527 25.484015 0.678888 -3.001526 25.484013 0.171679 -1.538647 12.733105 -0.000001 0.000003 0.000002 -10.929466 2.227039 15.938374 2.317129 9.632094 3.179769 12.636520 5.367517 -7.007135 0.000039 -0.000003 -0.000001 -0.000000 -0.000000 -0.000000 -9.624763 -0.003874 1.868507 34.110211 7.981033 -6.173190 -15.036875 2.226722 3.036502 -0.038646 0.000003 -0.000001 -0.000000 -0.000000 -0.000000 
